<svg xmlns="http://www.w3.org/2000/svg" xmlns:xlink="http://www.w3.org/1999/xlink" xmlns:serif="http://www.serif.com/" width="100%" height="100%" viewBox="0 0 162 168" version="1.1" xml:space="preserve" style="fill-rule:evenodd;clip-rule:evenodd;stroke-linejoin:round;stroke-miterlimit:2;">
	<g transform="matrix(5.55556,0,0,5.55556,0,0)">
		<g transform="matrix(1,0,0,1,-1,29)">
			<g transform="matrix(40,0,0,40,0,0)">
				<path d="M0.721,-0.426C0.721,-0.364 0.71,-0.306 0.687,-0.252C0.664,-0.197 0.634,-0.151 0.598,-0.112C0.56,-0.072 0.517,-0.041 0.469,-0.018C0.42,0.005 0.37,0.017 0.318,0.017C0.238,0.017 0.173,-0.01 0.123,-0.062C0.074,-0.114 0.049,-0.182 0.049,-0.264C0.049,-0.327 0.06,-0.385 0.083,-0.44C0.106,-0.494 0.135,-0.541 0.172,-0.58C0.209,-0.62 0.252,-0.652 0.301,-0.675C0.35,-0.698 0.4,-0.709 0.452,-0.709C0.531,-0.709 0.596,-0.684 0.646,-0.633C0.696,-0.581 0.721,-0.513 0.721,-0.426ZM0.535,-0.166C0.558,-0.206 0.576,-0.251 0.589,-0.302C0.601,-0.353 0.607,-0.404 0.607,-0.455C0.607,-0.52 0.593,-0.572 0.565,-0.61C0.537,-0.649 0.497,-0.668 0.443,-0.668C0.401,-0.668 0.362,-0.656 0.326,-0.631C0.29,-0.607 0.259,-0.57 0.232,-0.522C0.209,-0.48 0.191,-0.434 0.18,-0.384C0.168,-0.333 0.163,-0.286 0.163,-0.241C0.163,-0.173 0.177,-0.12 0.205,-0.082C0.234,-0.043 0.274,-0.024 0.327,-0.024C0.371,-0.024 0.411,-0.038 0.447,-0.064C0.483,-0.091 0.512,-0.125 0.535,-0.166ZM0.496,-0.236L0.464,-0.236C0.464,-0.247 0.464,-0.258 0.463,-0.269C0.463,-0.28 0.461,-0.288 0.458,-0.295C0.455,-0.301 0.448,-0.305 0.437,-0.307C0.426,-0.309 0.406,-0.31 0.376,-0.31C0.346,-0.31 0.325,-0.309 0.313,-0.307C0.302,-0.305 0.293,-0.301 0.288,-0.295C0.281,-0.287 0.275,-0.278 0.27,-0.27C0.265,-0.261 0.26,-0.25 0.254,-0.236L0.223,-0.236L0.274,-0.456L0.306,-0.456C0.306,-0.441 0.306,-0.43 0.306,-0.422C0.307,-0.414 0.309,-0.406 0.312,-0.398C0.314,-0.392 0.321,-0.388 0.331,-0.386C0.341,-0.384 0.362,-0.383 0.394,-0.383C0.423,-0.383 0.443,-0.384 0.456,-0.386C0.469,-0.388 0.477,-0.392 0.482,-0.398C0.489,-0.406 0.495,-0.414 0.5,-0.422C0.504,-0.431 0.51,-0.442 0.516,-0.456L0.547,-0.456L0.496,-0.236Z" style="fill-rule:nonzero;"/>
			</g>
		</g>
	</g>
	<style>
		@media (prefers-color-scheme: dark)  { path { fill: rgb(201, 209, 217); } }
		@media (prefers-color-scheme: light) { path { fill: rgb( 36,  41,  47); } }
	</style>
</svg>
