<svg width="39" height="13" viewBox="0 0 39 13" fill="none" xmlns="http://www.w3.org/2000/svg">
<path d="M31 4H30V9H31V10H32V11H37V10H38V9H39V6H35V7H37V8H36V9H33V8H32V5H33V4H36V5H38H39V4H38V3H37V2H32V3H31V4Z" fill="black"/>
<path d="M29 2H27V11H29V2Z" fill="black"/>
<path d="M26 9H21V8H22V7H23V6H24V5H25V4H26V2H17V4H22V5H21V6H20V7H19V8H18V9H17V11H26V9Z" fill="black"/>
<path d="M1 13V12H0V13H1Z" fill="#F7A41D"/>
<path fill-rule="evenodd" clip-rule="evenodd" d="M14 0H15V1H14V0ZM4 2V3H3V4H2V10H1V11H0V2H4Z" fill="#F7A41D"/>
<path d="M14 1H12V2H5V3H4V4H8V5H7V6H6V7H5V8H4V9H3V10H2V11H1V12H3V11H10V10H11V9H7V8H8V7H9V6H10V5H11V4H12V3H13V2H14V1Z" fill="#F7A41D"/>
<path d="M11 10V11H15V2H14V3H13V9H12V10H11Z" fill="#F7A41D"/>
</svg>
